<mxfile host="app.diagrams.net" modified="2022-07-24T18:20:09.377Z" agent="5.0 (Windows NT 10.0; Win64; x64) AppleWebKit/537.36 (KHTML, like Gecko) Chrome/103.0.0.0 Safari/537.36" etag="bdJZ8BEO1Wawt8q41myp" version="20.1.4" type="github">
  <diagram id="xoShVVpSHafOc3sDtM93" name="第 1 页">
    <mxGraphModel dx="981" dy="520" grid="1" gridSize="10" guides="1" tooltips="1" connect="1" arrows="1" fold="1" page="1" pageScale="1" pageWidth="827" pageHeight="1169" math="0" shadow="0">
      <root>
        <mxCell id="0" />
        <mxCell id="1" parent="0" />
        <mxCell id="M6iwQH-j2GS4edgFq6HO-42" value="" style="rounded=1;whiteSpace=wrap;html=1;fontSize=10;fillColor=none;dashed=1;dashPattern=1 2;strokeWidth=2;" vertex="1" parent="1">
          <mxGeometry x="190" y="240" width="520" height="190" as="geometry" />
        </mxCell>
        <mxCell id="M6iwQH-j2GS4edgFq6HO-21" value="" style="rounded=1;whiteSpace=wrap;html=1;fontSize=12;fillColor=none;" vertex="1" parent="1">
          <mxGeometry x="200" y="275" width="240" height="135" as="geometry" />
        </mxCell>
        <mxCell id="M6iwQH-j2GS4edgFq6HO-9" style="edgeStyle=orthogonalEdgeStyle;rounded=0;orthogonalLoop=1;jettySize=auto;html=1;exitX=0.5;exitY=0;exitDx=0;exitDy=0;entryX=0;entryY=0.5;entryDx=0;entryDy=0;" edge="1" parent="1" source="M6iwQH-j2GS4edgFq6HO-5" target="M6iwQH-j2GS4edgFq6HO-7">
          <mxGeometry relative="1" as="geometry" />
        </mxCell>
        <mxCell id="M6iwQH-j2GS4edgFq6HO-5" value="Backbone Encoder" style="rounded=1;whiteSpace=wrap;html=1;fillColor=#ffe6cc;strokeColor=#d79b00;" vertex="1" parent="1">
          <mxGeometry x="220" y="340" width="120" height="60" as="geometry" />
        </mxCell>
        <mxCell id="M6iwQH-j2GS4edgFq6HO-8" style="edgeStyle=orthogonalEdgeStyle;rounded=0;orthogonalLoop=1;jettySize=auto;html=1;exitX=0.5;exitY=0;exitDx=0;exitDy=0;entryX=0.5;entryY=1;entryDx=0;entryDy=0;" edge="1" parent="1" source="M6iwQH-j2GS4edgFq6HO-6" target="M6iwQH-j2GS4edgFq6HO-7">
          <mxGeometry relative="1" as="geometry" />
        </mxCell>
        <mxCell id="M6iwQH-j2GS4edgFq6HO-6" value="Side-tuning Encoder" style="rounded=1;whiteSpace=wrap;html=1;fillColor=#fff2cc;strokeColor=#d6b656;" vertex="1" parent="1">
          <mxGeometry x="340" y="340" width="90" height="40" as="geometry" />
        </mxCell>
        <mxCell id="M6iwQH-j2GS4edgFq6HO-17" style="edgeStyle=orthogonalEdgeStyle;rounded=0;orthogonalLoop=1;jettySize=auto;html=1;exitX=1;exitY=0;exitDx=0;exitDy=0;entryX=0.167;entryY=1.033;entryDx=0;entryDy=0;entryPerimeter=0;strokeColor=#0000CC;strokeWidth=2;" edge="1" parent="1" source="M6iwQH-j2GS4edgFq6HO-7" target="M6iwQH-j2GS4edgFq6HO-15">
          <mxGeometry relative="1" as="geometry">
            <Array as="points">
              <mxPoint x="240" y="294" />
            </Array>
          </mxGeometry>
        </mxCell>
        <mxCell id="M6iwQH-j2GS4edgFq6HO-30" style="edgeStyle=orthogonalEdgeStyle;rounded=0;orthogonalLoop=1;jettySize=auto;html=1;exitX=1;exitY=0.5;exitDx=0;exitDy=0;entryX=0.5;entryY=1;entryDx=0;entryDy=0;fontSize=12;strokeColor=#000000;strokeWidth=2;" edge="1" parent="1" source="M6iwQH-j2GS4edgFq6HO-7" target="M6iwQH-j2GS4edgFq6HO-25">
          <mxGeometry relative="1" as="geometry">
            <Array as="points">
              <mxPoint x="280" y="260" />
              <mxPoint x="450" y="260" />
              <mxPoint x="450" y="420" />
              <mxPoint x="530" y="420" />
            </Array>
          </mxGeometry>
        </mxCell>
        <mxCell id="M6iwQH-j2GS4edgFq6HO-18" style="edgeStyle=orthogonalEdgeStyle;rounded=0;orthogonalLoop=1;jettySize=auto;html=1;exitX=1;exitY=1;exitDx=0;exitDy=0;entryX=0.822;entryY=1.022;entryDx=0;entryDy=0;entryPerimeter=0;strokeColor=#CC0000;strokeWidth=2;" edge="1" parent="1" source="M6iwQH-j2GS4edgFq6HO-7" target="M6iwQH-j2GS4edgFq6HO-15">
          <mxGeometry relative="1" as="geometry">
            <Array as="points">
              <mxPoint x="319" y="294" />
              <mxPoint x="319" y="270" />
              <mxPoint x="319" y="270" />
            </Array>
          </mxGeometry>
        </mxCell>
        <mxCell id="M6iwQH-j2GS4edgFq6HO-7" value="" style="shape=orEllipse;perimeter=ellipsePerimeter;whiteSpace=wrap;html=1;backgroundOutline=1;rotation=-90;" vertex="1" parent="1">
          <mxGeometry x="265" y="290" width="30" height="30" as="geometry" />
        </mxCell>
        <mxCell id="M6iwQH-j2GS4edgFq6HO-12" style="edgeStyle=orthogonalEdgeStyle;rounded=0;orthogonalLoop=1;jettySize=auto;html=1;exitX=0.25;exitY=0;exitDx=0;exitDy=0;entryX=0.25;entryY=1;entryDx=0;entryDy=0;strokeColor=#0000FF;strokeWidth=2;" edge="1" parent="1" source="M6iwQH-j2GS4edgFq6HO-10" target="M6iwQH-j2GS4edgFq6HO-5">
          <mxGeometry relative="1" as="geometry" />
        </mxCell>
        <mxCell id="M6iwQH-j2GS4edgFq6HO-14" style="edgeStyle=orthogonalEdgeStyle;rounded=0;orthogonalLoop=1;jettySize=auto;html=1;exitX=0.75;exitY=0;exitDx=0;exitDy=0;entryX=0.75;entryY=1;entryDx=0;entryDy=0;strokeColor=#CC0000;strokeWidth=2;" edge="1" parent="1" source="M6iwQH-j2GS4edgFq6HO-11" target="M6iwQH-j2GS4edgFq6HO-5">
          <mxGeometry relative="1" as="geometry" />
        </mxCell>
        <mxCell id="M6iwQH-j2GS4edgFq6HO-45" style="edgeStyle=orthogonalEdgeStyle;rounded=0;orthogonalLoop=1;jettySize=auto;html=1;exitX=1;exitY=0.5;exitDx=0;exitDy=0;fontSize=10;strokeColor=#000000;strokeWidth=1;" edge="1" parent="1" source="M6iwQH-j2GS4edgFq6HO-10" target="M6iwQH-j2GS4edgFq6HO-44">
          <mxGeometry relative="1" as="geometry" />
        </mxCell>
        <mxCell id="M6iwQH-j2GS4edgFq6HO-10" value="&lt;font style=&quot;font-size: 12px;&quot;&gt;classical Chinese &lt;i style=&quot;&quot;&gt;&lt;b style=&quot;&quot;&gt;s&lt;/b&gt;&lt;/i&gt;&lt;/font&gt;" style="rounded=0;whiteSpace=wrap;html=1;fillColor=#dae8fc;strokeColor=#6c8ebf;" vertex="1" parent="1">
          <mxGeometry x="220" y="440" width="122" height="30" as="geometry" />
        </mxCell>
        <mxCell id="M6iwQH-j2GS4edgFq6HO-11" value="modern Chinese &lt;b&gt;&lt;i&gt;r&lt;/i&gt;&lt;/b&gt;" style="rounded=0;whiteSpace=wrap;html=1;fillColor=#f8cecc;strokeColor=#b85450;" vertex="1" parent="1">
          <mxGeometry x="220" y="480" width="122" height="30" as="geometry" />
        </mxCell>
        <mxCell id="M6iwQH-j2GS4edgFq6HO-15" value="&lt;i style=&quot;&quot;&gt;&lt;b&gt;L&lt;/b&gt;&lt;sub style=&quot;font-weight: bold;&quot;&gt;&lt;font style=&quot;font-size: 11px;&quot;&gt;EST&lt;/font&gt;&lt;/sub&gt;&lt;b&gt;(&lt;/b&gt;f(s), f(r)&lt;b&gt;)&lt;/b&gt;&lt;/i&gt;" style="shape=trapezoid;perimeter=trapezoidPerimeter;whiteSpace=wrap;html=1;fixedSize=1;fillColor=#f5f5f5;strokeColor=#666666;fontColor=#333333;" vertex="1" parent="1">
          <mxGeometry x="220" y="190" width="120" height="40" as="geometry" />
        </mxCell>
        <mxCell id="M6iwQH-j2GS4edgFq6HO-22" value="encoder&lt;i&gt; &lt;b&gt;f&lt;/b&gt;&lt;/i&gt;" style="text;html=1;strokeColor=none;fillColor=none;align=center;verticalAlign=middle;whiteSpace=wrap;rounded=0;fontSize=12;" vertex="1" parent="1">
          <mxGeometry x="205" y="300" width="60" height="30" as="geometry" />
        </mxCell>
        <mxCell id="M6iwQH-j2GS4edgFq6HO-23" value="" style="rounded=1;whiteSpace=wrap;html=1;fontSize=12;fillColor=none;" vertex="1" parent="1">
          <mxGeometry x="460" y="260" width="220" height="150" as="geometry" />
        </mxCell>
        <mxCell id="M6iwQH-j2GS4edgFq6HO-29" style="edgeStyle=orthogonalEdgeStyle;rounded=0;orthogonalLoop=1;jettySize=auto;html=1;exitX=0;exitY=0.5;exitDx=0;exitDy=0;entryX=0.5;entryY=1;entryDx=0;entryDy=0;fontSize=12;strokeColor=#000000;strokeWidth=1;" edge="1" parent="1" source="M6iwQH-j2GS4edgFq6HO-24" target="M6iwQH-j2GS4edgFq6HO-26">
          <mxGeometry relative="1" as="geometry">
            <Array as="points">
              <mxPoint x="590" y="290" />
            </Array>
          </mxGeometry>
        </mxCell>
        <mxCell id="M6iwQH-j2GS4edgFq6HO-35" style="edgeStyle=orthogonalEdgeStyle;rounded=0;orthogonalLoop=1;jettySize=auto;html=1;exitX=0;exitY=0.5;exitDx=0;exitDy=0;entryX=0.75;entryY=1;entryDx=0;entryDy=0;fontSize=10;strokeColor=#990099;strokeWidth=2;" edge="1" parent="1" source="M6iwQH-j2GS4edgFq6HO-24" target="M6iwQH-j2GS4edgFq6HO-33">
          <mxGeometry relative="1" as="geometry">
            <Array as="points">
              <mxPoint x="570" y="290" />
              <mxPoint x="570" y="270" />
              <mxPoint x="485" y="270" />
            </Array>
          </mxGeometry>
        </mxCell>
        <mxCell id="M6iwQH-j2GS4edgFq6HO-24" value="Datastore &lt;i&gt;&lt;b&gt;(K, T)&lt;/b&gt;&lt;/i&gt;" style="ellipse;whiteSpace=wrap;html=1;fontSize=12;fillColor=#e1d5e7;strokeColor=#9673a6;" vertex="1" parent="1">
          <mxGeometry x="585" y="271.25" width="90" height="37.5" as="geometry" />
        </mxCell>
        <mxCell id="M6iwQH-j2GS4edgFq6HO-27" style="edgeStyle=orthogonalEdgeStyle;rounded=0;orthogonalLoop=1;jettySize=auto;html=1;exitX=0.5;exitY=0;exitDx=0;exitDy=0;entryX=0;entryY=0.5;entryDx=0;entryDy=0;fontSize=12;strokeColor=#000000;strokeWidth=1;" edge="1" parent="1" source="M6iwQH-j2GS4edgFq6HO-25" target="M6iwQH-j2GS4edgFq6HO-26">
          <mxGeometry relative="1" as="geometry" />
        </mxCell>
        <mxCell id="M6iwQH-j2GS4edgFq6HO-31" style="edgeStyle=orthogonalEdgeStyle;rounded=0;orthogonalLoop=1;jettySize=auto;html=1;exitX=0.5;exitY=0;exitDx=0;exitDy=0;entryX=0.5;entryY=1;entryDx=0;entryDy=0;fontSize=12;strokeColor=#000000;strokeWidth=1;" edge="1" parent="1" source="M6iwQH-j2GS4edgFq6HO-25" target="M6iwQH-j2GS4edgFq6HO-24">
          <mxGeometry relative="1" as="geometry">
            <Array as="points">
              <mxPoint x="530" y="330" />
              <mxPoint x="630" y="330" />
              <mxPoint x="630" y="318" />
            </Array>
          </mxGeometry>
        </mxCell>
        <mxCell id="M6iwQH-j2GS4edgFq6HO-36" style="edgeStyle=orthogonalEdgeStyle;rounded=0;orthogonalLoop=1;jettySize=auto;html=1;exitX=0.5;exitY=0;exitDx=0;exitDy=0;entryX=0.25;entryY=1;entryDx=0;entryDy=0;fontSize=10;strokeColor=#CC6600;strokeWidth=2;" edge="1" parent="1" source="M6iwQH-j2GS4edgFq6HO-25" target="M6iwQH-j2GS4edgFq6HO-33">
          <mxGeometry relative="1" as="geometry">
            <Array as="points">
              <mxPoint x="530" y="330" />
              <mxPoint x="470" y="330" />
              <mxPoint x="470" y="270" />
              <mxPoint x="425" y="270" />
            </Array>
          </mxGeometry>
        </mxCell>
        <mxCell id="M6iwQH-j2GS4edgFq6HO-25" value="Backbone Decoder" style="rounded=1;whiteSpace=wrap;html=1;fillColor=#ffe6cc;strokeColor=#d79b00;" vertex="1" parent="1">
          <mxGeometry x="470" y="340" width="120" height="60" as="geometry" />
        </mxCell>
        <mxCell id="M6iwQH-j2GS4edgFq6HO-40" style="edgeStyle=orthogonalEdgeStyle;rounded=0;orthogonalLoop=1;jettySize=auto;html=1;exitX=1;exitY=0.5;exitDx=0;exitDy=0;entryX=0.25;entryY=1;entryDx=0;entryDy=0;fontSize=10;strokeColor=#99004D;strokeWidth=2;" edge="1" parent="1" source="M6iwQH-j2GS4edgFq6HO-26" target="M6iwQH-j2GS4edgFq6HO-37">
          <mxGeometry relative="1" as="geometry">
            <Array as="points">
              <mxPoint x="530" y="250" />
              <mxPoint x="600" y="250" />
            </Array>
          </mxGeometry>
        </mxCell>
        <mxCell id="M6iwQH-j2GS4edgFq6HO-26" value="" style="shape=orEllipse;perimeter=ellipsePerimeter;whiteSpace=wrap;html=1;backgroundOutline=1;rotation=-90;" vertex="1" parent="1">
          <mxGeometry x="515" y="275" width="30" height="30" as="geometry" />
        </mxCell>
        <mxCell id="M6iwQH-j2GS4edgFq6HO-32" value="&lt;font style=&quot;font-size: 10px;&quot;&gt;Retrieval&lt;/font&gt;" style="text;html=1;strokeColor=none;fillColor=none;align=center;verticalAlign=middle;whiteSpace=wrap;rounded=0;fontSize=12;" vertex="1" parent="1">
          <mxGeometry x="545" y="305" width="60" height="30" as="geometry" />
        </mxCell>
        <mxCell id="M6iwQH-j2GS4edgFq6HO-33" value="&lt;i style=&quot;&quot;&gt;&lt;b&gt;L&lt;span style=&quot;font-size: 11px;&quot;&gt;&lt;sub&gt;PNM&lt;/sub&gt;&lt;/span&gt;&lt;/b&gt;&lt;b&gt;(&lt;/b&gt;g(t), k&lt;sub&gt;m&lt;/sub&gt;&lt;b&gt;)&lt;/b&gt;&lt;/i&gt;" style="shape=trapezoid;perimeter=trapezoidPerimeter;whiteSpace=wrap;html=1;fixedSize=1;fillColor=#f5f5f5;strokeColor=#666666;fontColor=#333333;" vertex="1" parent="1">
          <mxGeometry x="395" y="190" width="120" height="40" as="geometry" />
        </mxCell>
        <mxCell id="M6iwQH-j2GS4edgFq6HO-34" value="decoder&lt;i&gt;&amp;nbsp;&lt;b&gt;g&lt;/b&gt;&lt;/i&gt;" style="text;html=1;strokeColor=none;fillColor=none;align=center;verticalAlign=middle;whiteSpace=wrap;rounded=0;fontSize=12;" vertex="1" parent="1">
          <mxGeometry x="600" y="350" width="60" height="30" as="geometry" />
        </mxCell>
        <mxCell id="M6iwQH-j2GS4edgFq6HO-37" value="&lt;i style=&quot;&quot;&gt;&lt;b&gt;L&lt;font size=&quot;1&quot;&gt;&lt;sub&gt;CE&lt;/sub&gt;&lt;/font&gt;&lt;/b&gt;&lt;b&gt;(&lt;/b&gt;h(s, t&lt;sub&gt;&amp;lt;i&lt;/sub&gt;), t&lt;sub&gt;i&lt;/sub&gt;&lt;b&gt;)&lt;/b&gt;&lt;/i&gt;" style="shape=trapezoid;perimeter=trapezoidPerimeter;whiteSpace=wrap;html=1;fixedSize=1;fillColor=#f5f5f5;strokeColor=#666666;fontColor=#333333;" vertex="1" parent="1">
          <mxGeometry x="570" y="190" width="120" height="40" as="geometry" />
        </mxCell>
        <mxCell id="M6iwQH-j2GS4edgFq6HO-39" style="edgeStyle=orthogonalEdgeStyle;rounded=0;orthogonalLoop=1;jettySize=auto;html=1;exitX=0.437;exitY=-0.046;exitDx=0;exitDy=0;entryX=0.75;entryY=1;entryDx=0;entryDy=0;fontSize=10;strokeColor=#009900;strokeWidth=2;exitPerimeter=0;" edge="1" parent="1" source="M6iwQH-j2GS4edgFq6HO-38" target="M6iwQH-j2GS4edgFq6HO-25">
          <mxGeometry relative="1" as="geometry">
            <Array as="points">
              <mxPoint x="623" y="420" />
              <mxPoint x="560" y="420" />
            </Array>
          </mxGeometry>
        </mxCell>
        <mxCell id="M6iwQH-j2GS4edgFq6HO-41" style="edgeStyle=orthogonalEdgeStyle;rounded=0;orthogonalLoop=1;jettySize=auto;html=1;exitX=0.75;exitY=0;exitDx=0;exitDy=0;entryX=0.75;entryY=1;entryDx=0;entryDy=0;fontSize=10;strokeColor=#009900;strokeWidth=2;" edge="1" parent="1" source="M6iwQH-j2GS4edgFq6HO-38" target="M6iwQH-j2GS4edgFq6HO-37">
          <mxGeometry relative="1" as="geometry">
            <Array as="points">
              <mxPoint x="658" y="420" />
              <mxPoint x="690" y="420" />
              <mxPoint x="690" y="250" />
              <mxPoint x="660" y="250" />
            </Array>
          </mxGeometry>
        </mxCell>
        <mxCell id="M6iwQH-j2GS4edgFq6HO-46" style="edgeStyle=orthogonalEdgeStyle;rounded=0;orthogonalLoop=1;jettySize=auto;html=1;exitX=0;exitY=0.5;exitDx=0;exitDy=0;entryX=1;entryY=0.5;entryDx=0;entryDy=0;fontSize=10;strokeColor=#000000;strokeWidth=1;" edge="1" parent="1" source="M6iwQH-j2GS4edgFq6HO-38" target="M6iwQH-j2GS4edgFq6HO-44">
          <mxGeometry relative="1" as="geometry" />
        </mxCell>
        <mxCell id="M6iwQH-j2GS4edgFq6HO-38" value="English &lt;b&gt;&lt;i&gt;t&lt;/i&gt;&lt;/b&gt;" style="rounded=0;whiteSpace=wrap;html=1;fillColor=#d5e8d4;strokeColor=#82b366;" vertex="1" parent="1">
          <mxGeometry x="574.5" y="440" width="111" height="30" as="geometry" />
        </mxCell>
        <mxCell id="M6iwQH-j2GS4edgFq6HO-43" value="Encoder-Decoder &lt;i&gt;&lt;b&gt;h&lt;/b&gt;&lt;/i&gt;" style="text;html=1;strokeColor=default;fillColor=none;align=center;verticalAlign=middle;whiteSpace=wrap;rounded=0;dashed=1;dashPattern=1 2;fontSize=10;labelBorderColor=none;" vertex="1" parent="1">
          <mxGeometry x="395" y="430" width="125" height="30" as="geometry" />
        </mxCell>
        <mxCell id="M6iwQH-j2GS4edgFq6HO-44" value="Trie &lt;b&gt;&lt;i&gt;M&lt;/i&gt;&lt;/b&gt;" style="ellipse;whiteSpace=wrap;html=1;fontSize=10;strokeWidth=1;fillColor=#e1d5e7;strokeColor=#9673a6;" vertex="1" parent="1">
          <mxGeometry x="397.5" y="470" width="120" height="30" as="geometry" />
        </mxCell>
        <mxCell id="M6iwQH-j2GS4edgFq6HO-48" value="Proper Nouns Memory" style="text;html=1;strokeColor=#9673a6;fillColor=#e1d5e7;align=center;verticalAlign=middle;whiteSpace=wrap;rounded=0;fontSize=10;" vertex="1" parent="1">
          <mxGeometry x="574.5" y="480" width="125" height="30" as="geometry" />
        </mxCell>
      </root>
    </mxGraphModel>
  </diagram>
</mxfile>
